# xmcd CD database file
#
# Track frame offsets:
#	150
#	12428
#	26234
#	40653
#	58139
#	70246
#	86531
#	100274
#	114955
#	124632
#	136450
#	149094
#
# Disc length: 2211 seconds
#
# Revision: 0
# Processed by: cddbd v1.5.2PL0 Copyright (c) Steve Scherf et al.
# Submitted via: ACXtractor (MTCDDB.DLL V2003.07.15)
#
DISCID=aa08a10c
DTITLE=ete Smith - I Thank You
DYEAR=2015
DGENRE=Country
TTITLE0=Outback Rodeo
TTITLE1=Mt Lindsay on Show
TTITLE2=Curio
TTITLE3=I Thank You
TTITLE4=Dinkum Aussie Rouseabout
TTITLE5=The Swallow Song
TTITLE6=Going Home
TTITLE7=Working Man
TTITLE8=Leslie The Drover
TTITLE9=Tribute to Cecil Pearce
TTITLE10=Walk Away
TTITLE11=Country Way of Life
EXTD=ID3G:   2 YEAR: 2015
EXTT0=
EXTT1=
EXTT2=
EXTT3=
EXTT4=
EXTT5=
EXTT6=
EXTT7=
EXTT8=
EXTT9=
EXTT10=
EXTT11=
PLAYORDER=
